<mxfile host="app.diagrams.net" modified="2024-09-16T13:47:28.090Z" agent="Mozilla/5.0 (Windows NT 10.0; Win64; x64) AppleWebKit/537.36 (KHTML, like Gecko) Chrome/128.0.0.0 Safari/537.36" etag="I5B7gJW7md8pENn6hg3a" version="24.4.4" type="device">
  <diagram name="Страница — 1" id="8BBsglMxp4hL4Y8rHRi4">
    <mxGraphModel dx="890" dy="826" grid="1" gridSize="10" guides="1" tooltips="1" connect="1" arrows="1" fold="1" page="1" pageScale="1" pageWidth="1169" pageHeight="827" math="0" shadow="0">
      <root>
        <mxCell id="0" />
        <mxCell id="1" parent="0" />
        <mxCell id="TQ-d4cThPd-7o7R9Aojk-5" value="" style="rounded=0;whiteSpace=wrap;html=1;fillColor=#f5f5f5;fontColor=#333333;strokeColor=#666666;" vertex="1" parent="1">
          <mxGeometry x="270" y="320" width="580" height="160" as="geometry" />
        </mxCell>
        <mxCell id="TQ-d4cThPd-7o7R9Aojk-4" value="" style="rounded=0;whiteSpace=wrap;html=1;fillColor=#f5f5f5;fontColor=#333333;strokeColor=#666666;" vertex="1" parent="1">
          <mxGeometry x="270" y="200" width="580" height="120" as="geometry" />
        </mxCell>
        <mxCell id="TQ-d4cThPd-7o7R9Aojk-1" value="&lt;font style=&quot;font-size: 24px;&quot;&gt;IPS display&lt;/font&gt;" style="rounded=0;whiteSpace=wrap;html=1;fillColor=#dae8fc;strokeColor=#6c8ebf;" vertex="1" parent="1">
          <mxGeometry x="320" y="220" width="480" height="80" as="geometry" />
        </mxCell>
        <mxCell id="TQ-d4cThPd-7o7R9Aojk-2" value="&lt;font style=&quot;font-size: 24px;&quot;&gt;Mechanical keyboard&lt;/font&gt;" style="rounded=0;whiteSpace=wrap;html=1;fillColor=#647687;fontColor=#ffffff;strokeColor=#314354;" vertex="1" parent="1">
          <mxGeometry x="290" y="340" width="420" height="120" as="geometry" />
        </mxCell>
        <mxCell id="TQ-d4cThPd-7o7R9Aojk-3" value="&lt;font style=&quot;font-size: 17px;&quot;&gt;Trackball&lt;/font&gt;" style="ellipse;whiteSpace=wrap;html=1;aspect=fixed;fillColor=#a0522d;fontColor=#ffffff;strokeColor=#6D1F00;" vertex="1" parent="1">
          <mxGeometry x="740" y="360" width="80" height="80" as="geometry" />
        </mxCell>
        <mxCell id="TQ-d4cThPd-7o7R9Aojk-6" value="&lt;div&gt;L&lt;/div&gt;&lt;div&gt;sp&lt;/div&gt;" style="rounded=1;whiteSpace=wrap;html=1;fillColor=#e3c800;fontColor=#000000;strokeColor=#B09500;" vertex="1" parent="1">
          <mxGeometry x="280" y="230" width="20" height="60" as="geometry" />
        </mxCell>
        <mxCell id="TQ-d4cThPd-7o7R9Aojk-7" value="R&lt;div&gt;sp&lt;/div&gt;" style="rounded=1;whiteSpace=wrap;html=1;fillColor=#e3c800;fontColor=#000000;strokeColor=#B09500;" vertex="1" parent="1">
          <mxGeometry x="820" y="230" width="20" height="60" as="geometry" />
        </mxCell>
      </root>
    </mxGraphModel>
  </diagram>
</mxfile>
